# xmcd
#
# Track frame offsets:
# 150
# 20922
# 38472
# 60555
# 80040
# 100247
# 121640
# 145325
# 162762
# 184057
# 205067
# 225595
# 246100
#
# Disc length: 3562 seconds
#
#
# Revision: 0
# Processed by: cddbd v1.5.2PL0 Copyright (c) Steve Scherf et al.
# Submitted via: FreeRIP 2.945 
#
DISCID=a40de80d
DTITLE=tupac shakur - greatest hits cd 2
DYEAR=1900
DGENRE=Hip-Hop
TTITLE0=troublesome 96
TTITLE1=brenda's got a baby
TTITLE2=i ain't mad at cha
TTITLE3=get aroud
TTITLE4=changes
TTITLE5=california love (original version)
TTITLE6=picture me rollin'
TTITLE7=how long will they mourn me?
TTITLE8=toss it up
TTITLE9=dear mama
TTITLE10=all about u
TTITLE11=to life and die in I.a
TTITLE12=heartz of man
EXTD=
EXTT0=
EXTT1=
EXTT2=
EXTT3=
EXTT4=
EXTT5=
EXTT6=
EXTT7=
EXTT8=
EXTT9=
EXTT10=
EXTT11=
EXTT12=
PLAYORDER=
